<?xml version="1.0" encoding="utf-8"?>
<!-- Generator: Adobe Illustrator 19.1.0, SVG Export Plug-In . SVG Version: 6.00 Build 0)  -->
<svg version="1.1" id="Layer_1" xmlns="http://www.w3.org/2000/svg" xmlns:xlink="http://www.w3.org/1999/xlink" x="0px" y="0px"
	 viewBox="-255 347 100 100" style="enable-background:new -255 347 100 100;" xml:space="preserve">
<style type="text/css">
	.st0{fill:#FFFFFF;}
</style>
<path class="st0" d="M-250,352c0.7-0.7,1.7-0.7,2.4,0l0,0l59.5,59.5c0.7,0.7,0.7,1.7,0,2.4l0,0c-0.7,0.7-1.7,0.7-2.4,0l0,0
	l-59.5-59.5c-0.3-0.3-0.5-0.8-0.5-1.2l0,0C-250.5,352.8-250.3,352.3-250,352L-250,352z M-223.8,361.5c-0.4,0.3-0.6,0.8-0.6,1.3l0,0
	c0,0.4,0.1,0.8,0.4,1.1l41.1,46.6l0,0c0.6,0.7,1.7,0.8,2.4,0.1l0,0c0.7-0.6,0.8-1.7,0.2-2.4l-41.1-46.6l0,0
	C-222,361-223.1,360.9-223.8,361.5L-223.8,361.5z M-170.3,416.5c-4.2-4.2-11-4.2-15.2,0c-4.2,4.2-4.2,11,0,15.2
	c4.2,4.2,11,4.2,15.2,0C-166.1,427.5-166.1,420.7-170.3,416.5z M-240.5,378.2c-0.3,0.3-0.4,0.7-0.4,1.1l0,0c0,0.5,0.2,0.9,0.6,1.3
	l46.6,41.1l0,0c0.7,0.6,1.8,0.6,2.4-0.2l0,0c0.6-0.7,0.6-1.8-0.2-2.4l-46.6-41.1l0,0C-238.8,377.4-239.8,377.5-240.5,378.2
	L-240.5,378.2z M-231.4,400.4c-0.3,0.3-0.4,0.7-0.4,1.1l0,0c0,0.5,0.2,1,0.6,1.3l42.2,34.8l0,0c3.2,2.6,7.1,3.9,11,3.9l0,0
	c4.5,0,8.9-1.7,12.3-5.1l0,0c3.4-3.4,5.1-7.9,5.1-12.3l0,0c0-3.9-1.3-7.8-3.9-11l-34.8-42.2l0,0c-0.6-0.7-1.7-0.8-2.4-0.2l0,0
	c-0.7,0.6-0.8,1.7-0.2,2.4l34.8,42.2l0,0c2.1,2.6,3.1,5.7,3.1,8.8l0,0c0,3.6-1.4,7.2-4.1,9.9l0,0c-2.7,2.7-6.3,4.1-9.9,4.1l0,0
	c-3.1,0-6.3-1-8.9-3.1l-42.2-34.7l0,0C-229.7,399.6-230.8,399.7-231.4,400.4L-231.4,400.4z"/>
</svg>
