<svg xmlns="http://www.w3.org/2000/svg" xmlns:xlink="http://www.w3.org/1999/xlink" version="1.1" x="0px" y="0px" viewBox="-5 -5 100 100" enable-background="new -5 -5 100 100" xml:space="preserve"><path d="M4.998,94.004c-0.663-0.662-0.663-1.735,0-2.397l0,0l59.542-59.542c0.663-0.663,1.737-0.663,2.399,0l0,0  c0.662,0.663,0.662,1.738,0,2.4l0,0L7.397,94.004c-0.332,0.331-0.766,0.497-1.201,0.497l0,0C5.763,94.501,5.329,94.335,4.998,94.004  L4.998,94.004z M14.539,67.785c0.335,0.382,0.803,0.573,1.273,0.573l0,0c0.399,0.002,0.799-0.139,1.122-0.424l46.595-41.06l0,0  c0.703-0.621,0.771-1.692,0.149-2.395l0,0c-0.618-0.703-1.69-0.772-2.395-0.152L14.688,65.392l0,0  C13.985,66.01,13.918,67.083,14.539,67.785L14.539,67.785z M69.47,14.334c-4.195,4.197-4.195,11,0,15.198  c4.197,4.197,11.002,4.197,15.198,0c4.196-4.196,4.196-11.001,0-15.198C80.472,10.138,73.667,10.138,69.47,14.334z M31.215,84.463  c0.323,0.284,0.723,0.425,1.121,0.425l0,0c0.471,0,0.938-0.193,1.274-0.574l41.062-46.594l0,0c0.619-0.704,0.552-1.776-0.151-2.395  l0,0c-0.703-0.621-1.773-0.553-2.395,0.151L31.064,82.067l0,0C30.445,82.771,30.514,83.845,31.215,84.463L31.215,84.463z   M53.446,75.379c0.316,0.263,0.697,0.388,1.076,0.388l0,0c0.49,0,0.977-0.209,1.312-0.617l34.751-42.205l0,0  c2.611-3.204,3.916-7.112,3.915-11.012l0,0c0.002-4.456-1.705-8.928-5.104-12.327l0,0c-3.404-3.405-7.881-5.108-12.338-5.107l0,0  c-3.896,0-7.804,1.307-10.994,3.912l-42.21,34.755l0,0c-0.724,0.596-0.827,1.665-0.231,2.389l0,0  c0.596,0.725,1.666,0.827,2.389,0.232l42.203-34.751l0,0c2.563-2.092,5.698-3.142,8.843-3.143l0,0  c3.604,0.003,7.189,1.366,9.938,4.113l0,0c2.743,2.744,4.108,6.329,4.11,9.927l0,0c0,3.148-1.049,6.288-3.146,8.86L53.215,72.99l0,0  C52.618,73.715,52.722,74.784,53.446,75.379L53.446,75.379z"></path></svg>